<svg xmlns="http://www.w3.org/2000/svg" width="24" height="24" viewBox="0 0 24 24" fill="none">
    <path fill-rule="evenodd" clip-rule="evenodd" d="M12 22.5C17.799 22.5 22.5 17.799 22.5 12C22.5 6.20101 17.799 1.5 12 1.5C6.20101 1.5 1.5 6.20101 1.5 12C1.5 17.799 6.20101 22.5 12 22.5ZM6.98743 12.8766C6.69454 12.5837 6.69454 12.1088 6.98743 11.8159C7.28032 11.523 7.7552 11.523 8.04809 11.8159L10.6997 14.4676L16.5334 8.63395C16.8263 8.34106 17.3011 8.34106 17.594 8.63395C17.8869 8.92685 17.8869 9.40172 17.594 9.69461L11.2301 16.0586C10.9372 16.3515 10.4623 16.3515 10.1694 16.0586L6.98743 12.8766Z" fill="#FFF"/>
</svg>
