<svg width="24" height="24" viewBox="0 0 24 24" fill="none" xmlns="http://www.w3.org/2000/svg">
    <path d="M12 11.6L14.5 14.1C14.6833 14.2833 14.775 14.5167 14.775 14.8C14.775 15.0833 14.6833 15.3167 14.5 15.5C14.3167 15.6833 14.0833 15.775 13.8 15.775C13.5167 15.775 13.2833 15.6833 13.1 15.5L10.3 12.7C10.2 12.6 10.125 12.4877 10.075 12.363C10.025 12.2383 10 12.109 10 11.975V8C10 7.71667 10.096 7.47934 10.288 7.288C10.48 7.09667 10.7173 7.00067 11 7C11.2827 6.99934 11.5203 7.09534 11.713 7.288C11.9057 7.48067 12.0013 7.718 12 8V11.6ZM18 6H16C15.7167 6 15.4793 5.90434 15.288 5.713C15.0967 5.52167 15.0007 5.284 15 5C14.9993 4.716 15.0953 4.47867 15.288 4.288C15.4807 4.09734 15.718 4.00134 16 4H18V2C18 1.71667 18.096 1.47934 18.288 1.288C18.48 1.09667 18.7173 1.00067 19 1C19.2827 0.999337 19.5203 1.09534 19.713 1.288C19.9057 1.48067 20.0013 1.718 20 2V4H22C22.2833 4 22.521 4.096 22.713 4.288C22.905 4.48 23.0007 4.71734 23 5C22.9993 5.28267 22.9033 5.52034 22.712 5.713C22.5207 5.90567 22.2833 6.00134 22 6H20V8C20 8.28334 19.904 8.521 19.712 8.713C19.52 8.905 19.2827 9.00067 19 9C18.7173 8.99934 18.48 8.90334 18.288 8.712C18.096 8.52067 18 8.28334 18 8V6ZM11 21C9.75 21 8.57933 20.7667 7.488 20.3C6.39667 19.8333 5.44233 19.1917 4.625 18.375C3.80767 17.5583 3.166 16.604 2.7 15.512C2.234 14.42 2.00067 13.2493 2 12C1.99933 10.7507 2.23267 9.58 2.7 8.488C3.16733 7.396 3.809 6.44167 4.625 5.625C5.441 4.80834 6.39533 4.16667 7.488 3.7C8.58067 3.23334 9.75133 3 11 3C11.1833 3 11.3543 3.00434 11.513 3.013C11.6717 3.02167 11.8423 3.04234 12.025 3.075C12.3083 3.075 12.546 3.171 12.738 3.363C12.93 3.555 13.0257 3.79234 13.025 4.075C13.0243 4.35767 12.9283 4.59534 12.737 4.788C12.5457 4.98067 12.3083 5.07634 12.025 5.075C11.8417 5.075 11.6707 5.06234 11.512 5.037C11.3533 5.01167 11.1827 4.99934 11 5C9.03333 5 7.375 5.675 6.025 7.025C4.675 8.375 4 10.0333 4 12C4 13.9667 4.675 15.625 6.025 16.975C7.375 18.325 9.03333 19 11 19C12.9667 19 14.625 18.325 15.975 16.975C17.325 15.625 18 13.9667 18 12C18 11.7167 18.096 11.4793 18.288 11.288C18.48 11.0967 18.7173 11.0007 19 11C19.2827 10.9993 19.5203 11.0953 19.713 11.288C19.9057 11.4807 20.0013 11.718 20 12C20 13.25 19.7667 14.421 19.3 15.513C18.8333 16.605 18.1917 17.559 17.375 18.375C16.5583 19.191 15.604 19.8327 14.512 20.3C13.42 20.7673 12.2493 21.0007 11 21Z" fill="#fff"/>
</svg>
