<svg width="24" height="24" viewBox="0 0 24 24" fill="none" xmlns="http://www.w3.org/2000/svg">
    <path d="M9.99999 5.75C9.99999 5.55109 9.92097 5.36032 9.78032 5.21967C9.63967 5.07902 9.44891 5 9.24999 5H6.99999L6.74999 5.006C5.44623 5.06991 4.21916 5.64115 3.33093 6.59766C2.44269 7.55418 1.96373 8.82012 1.99638 10.125C2.02902 11.43 2.57067 12.6704 3.50562 13.5813C4.44057 14.4922 5.69467 15.0014 6.99999 15H9.24999L9.35999 14.992C9.54747 14.9644 9.71754 14.8669 9.83604 14.719C9.95453 14.5711 10.0126 14.3838 9.99871 14.1949C9.98478 14.0059 9.89983 13.8292 9.76093 13.7003C9.62203 13.5714 9.43949 13.4998 9.24999 13.5H6.99999L6.79399 13.494C5.88494 13.4407 5.03245 13.0352 4.4175 12.3636C3.80254 11.692 3.47355 10.8072 3.50036 9.89696C3.52717 8.98674 3.90767 8.1228 4.56108 7.48856C5.2145 6.85431 6.08938 6.4997 6.99999 6.5H9.24999L9.35999 6.492C9.53792 6.46562 9.70044 6.37617 9.81792 6.23997C9.9354 6.10376 10 5.92987 9.99999 5.75ZM22 10C22 8.67392 21.4732 7.40215 20.5355 6.46447C19.5978 5.52678 18.3261 5 17 5H14.75L14.64 5.008C14.4525 5.0356 14.2824 5.13315 14.164 5.28103C14.0455 5.42891 13.9873 5.61616 14.0013 5.80515C14.0152 5.99413 14.1002 6.17083 14.2391 6.29974C14.378 6.42864 14.5605 6.50019 14.75 6.5H17L17.206 6.506C17.8225 6.54224 18.4184 6.74095 18.9333 7.08196C19.4481 7.42297 19.8636 7.89414 20.1375 8.44763C20.4114 9.00112 20.534 9.61722 20.4928 10.2334C20.4516 10.8496 20.2481 11.4439 19.903 11.956C20.288 12.319 20.59 12.769 20.779 13.274C21.5681 12.366 22.0018 11.203 22 10ZM17 9.25H6.99999L6.89799 9.257C6.70974 9.2829 6.53834 9.37929 6.41843 9.5267C6.29851 9.67411 6.23901 9.86154 6.25197 10.0511C6.26492 10.2407 6.34935 10.4183 6.4882 10.548C6.62705 10.6778 6.80997 10.7499 6.99999 10.75H17L17.102 10.743C17.2902 10.7171 17.4616 10.6207 17.5816 10.4733C17.7015 10.3259 17.761 10.1385 17.748 9.94888C17.7351 9.7593 17.6506 9.5817 17.5118 9.45197C17.3729 9.32224 17.19 9.25006 17 9.25ZM20 14.5C20 15.163 19.7366 15.7989 19.2678 16.2678C18.7989 16.7366 18.163 17 17.5 17C16.837 17 16.2011 16.7366 15.7322 16.2678C15.2634 15.7989 15 15.163 15 14.5C15 13.837 15.2634 13.2011 15.7322 12.7322C16.2011 12.2634 16.837 12 17.5 12C18.163 12 18.7989 12.2634 19.2678 12.7322C19.7366 13.2011 20 13.837 20 14.5ZM22 19.875C22 21.431 20.714 23 17.5 23C14.286 23 13 21.437 13 19.875V19.772C13 18.792 13.794 18 14.773 18H20.227C21.207 18 22 18.793 22 19.772V19.875Z" fill="#FFF"/>
</svg>
