<svg width="28" height="27" viewBox="0 0 28 27" fill="none" xmlns="http://www.w3.org/2000/svg">
    <path d="M24.5 22.7812V10.9688C24.5 10.745 24.4078 10.5304 24.2437 10.3721C24.0796 10.2139 23.8571 10.125 23.625 10.125H21V7.59375C21 7.36997 20.9078 7.15536 20.7437 6.99713C20.5796 6.83889 20.3571 6.75 20.125 6.75H18.375V5.90625C18.375 5.68247 18.2828 5.46786 18.1187 5.30963C17.9546 5.1514 17.7321 5.0625 17.5 5.0625H10.5C10.2679 5.0625 10.0454 5.1514 9.88128 5.30963C9.71719 5.46786 9.625 5.68247 9.625 5.90625V6.75H7.875C7.64294 6.75 7.42038 6.83889 7.25628 6.99713C7.09219 7.15536 7 7.36997 7 7.59375V10.125H4.375C4.14294 10.125 3.92038 10.2139 3.75628 10.3721C3.59219 10.5304 3.5 10.745 3.5 10.9688V22.7812C3.5 23.005 3.59219 23.2196 3.75628 23.3779C3.92038 23.5361 4.14294 23.625 4.375 23.625H23.625C23.8571 23.625 24.0796 23.5361 24.2437 23.3779C24.4078 23.2196 24.5 23.005 24.5 22.7812ZM6.5625 18.5625H7.4375C7.55353 18.5625 7.66481 18.6069 7.74686 18.6861C7.82891 18.7652 7.875 18.8725 7.875 18.9844V21.5156C7.875 21.6275 7.82891 21.7348 7.74686 21.8139C7.66481 21.8931 7.55353 21.9375 7.4375 21.9375H6.5625C6.44647 21.9375 6.33519 21.8931 6.25314 21.8139C6.17109 21.7348 6.125 21.6275 6.125 21.5156V18.9844C6.125 18.8725 6.17109 18.7652 6.25314 18.6861C6.33519 18.6069 6.44647 18.5625 6.5625 18.5625ZM10.0625 18.5625H10.9375C11.0535 18.5625 11.1648 18.6069 11.2469 18.6861C11.3289 18.7652 11.375 18.8725 11.375 18.9844V21.5156C11.375 21.6275 11.3289 21.7348 11.2469 21.8139C11.1648 21.8931 11.0535 21.9375 10.9375 21.9375H10.0625C9.94647 21.9375 9.83519 21.8931 9.75314 21.8139C9.67109 21.7348 9.625 21.6275 9.625 21.5156V18.9844C9.625 18.8725 9.67109 18.7652 9.75314 18.6861C9.83519 18.6069 9.94647 18.5625 10.0625 18.5625ZM13.125 18.9844C13.125 18.8725 13.1711 18.7652 13.2531 18.6861C13.3352 18.6069 13.4465 18.5625 13.5625 18.5625H14.4375C14.5535 18.5625 14.6648 18.6069 14.7469 18.6861C14.8289 18.7652 14.875 18.8725 14.875 18.9844V21.5156C14.875 21.6275 14.8289 21.7348 14.7469 21.8139C14.6648 21.8931 14.5535 21.9375 14.4375 21.9375H13.5625C13.4465 21.9375 13.3352 21.8931 13.2531 21.8139C13.1711 21.7348 13.125 21.6275 13.125 21.5156V18.9844ZM17.0625 18.5625H17.9375C18.0535 18.5625 18.1648 18.6069 18.2469 18.6861C18.3289 18.7652 18.375 18.8725 18.375 18.9844V21.5156C18.375 21.6275 18.3289 21.7348 18.2469 21.8139C18.1648 21.8931 18.0535 21.9375 17.9375 21.9375H17.0625C16.9465 21.9375 16.8352 21.8931 16.7531 21.8139C16.6711 21.7348 16.625 21.6275 16.625 21.5156V18.9844C16.625 18.8725 16.6711 18.7652 16.7531 18.6861C16.8352 18.6069 16.9465 18.5625 17.0625 18.5625ZM20.125 18.9844C20.125 18.8725 20.1711 18.7652 20.2531 18.6861C20.3352 18.6069 20.4465 18.5625 20.5625 18.5625H21.4375C21.5535 18.5625 21.6648 18.6069 21.7469 18.6861C21.8289 18.7652 21.875 18.8725 21.875 18.9844V21.5156C21.875 21.6275 21.8289 21.7348 21.7469 21.8139C21.6648 21.8931 21.5535 21.9375 21.4375 21.9375H20.5625C20.4465 21.9375 20.3352 21.8931 20.2531 21.8139C20.1711 21.7348 20.125 21.6275 20.125 21.5156V18.9844Z" fill="#0EF533"/>
    <path d="M3.5 0C2.57174 0 1.6815 0.355579 1.02513 0.988515C0.368749 1.62145 0 2.47989 0 3.375L0 23.625C0 24.5201 0.368749 25.3785 1.02513 26.0115C1.6815 26.6444 2.57174 27 3.5 27H24.5C25.4283 27 26.3185 26.6444 26.9749 26.0115C27.6313 25.3785 28 24.5201 28 23.625V3.375C28 2.47989 27.6313 1.62145 26.9749 0.988515C26.3185 0.355579 25.4283 0 24.5 0L3.5 0ZM1.75 3.375C1.75 2.92745 1.93437 2.49822 2.26256 2.18176C2.59075 1.86529 3.03587 1.6875 3.5 1.6875H24.5C24.9641 1.6875 25.4092 1.86529 25.7374 2.18176C26.0656 2.49822 26.25 2.92745 26.25 3.375V23.625C26.25 24.0726 26.0656 24.5018 25.7374 24.8182C25.4092 25.1347 24.9641 25.3125 24.5 25.3125H3.5C3.03587 25.3125 2.59075 25.1347 2.26256 24.8182C1.93437 24.5018 1.75 24.0726 1.75 23.625V3.375Z" fill="#0EF533"/>
</svg>
