<svg width="24" height="24" viewBox="0 0 24 24" fill="none" xmlns="http://www.w3.org/2000/svg">
    <path d="M10 4.37V13H8V4.052L8.042 3.912C8.165 3.499 8.492 2.797 9.105 2.184C9.74 1.546 10.695 1 12 1C13.306 1 14.259 1.546 14.895 2.184C15.508 2.797 15.835 3.499 15.958 3.912L16 4.052V6.437H14V4.37C13.8766 4.08203 13.7002 3.81981 13.48 3.597C13.158 3.274 12.694 3 12 3C11.306 3 10.842 3.274 10.52 3.597C10.2998 3.81981 10.1234 4.08203 10 4.37ZM4.052 8H6.437V10H4.37C4.08203 10.1234 3.81981 10.2998 3.597 10.52C3.274 10.842 3 11.306 3 12C3 12.694 3.274 13.158 3.597 13.48C3.873 13.756 4.183 13.922 4.37 14H13V16H4.052L3.912 15.958C3.499 15.835 2.797 15.508 2.184 14.895C1.546 14.26 1 13.305 1 12C1 10.694 1.546 9.741 2.184 9.105C2.797 8.492 3.499 8.165 3.912 8.042L4.052 8ZM11 8H19.948L20.088 8.042C20.501 8.165 21.202 8.492 21.817 9.105C22.454 9.74 23 10.695 23 12C23 13.306 22.454 14.259 21.817 14.895C21.203 15.508 20.501 15.835 20.088 15.958L19.948 16H17.564V14H19.63C19.918 13.8766 20.1802 13.7002 20.403 13.48C20.726 13.158 21 12.694 21 12C21 11.306 20.726 10.842 20.403 10.52C20.1802 10.2998 19.918 10.1234 19.63 10H11V8ZM16 11V19.948L15.958 20.088C15.835 20.501 15.508 21.202 14.895 21.817C14.26 22.454 13.305 23 12 23C10.694 23 9.741 22.454 9.105 21.817C8.492 21.203 8.165 20.501 8.042 20.088L8 19.948V17.564H10V19.63C10.078 19.817 10.244 20.127 10.52 20.403C10.842 20.726 11.306 21 12 21C12.694 21 13.158 20.726 13.48 20.403C13.7002 20.1802 13.8766 19.918 14 19.63V11H16Z" fill="#fff"/>
</svg>
