<svg width="20" height="20" viewBox="0 0 20 20" fill="none" xmlns="http://www.w3.org/2000/svg">
    <path fill-rule="evenodd" clip-rule="evenodd" d="M7.63199 7.022C7.32899 7.062 7.23399 7.128 7.18199 7.182C7.12799 7.234 7.06199 7.329 7.02199 7.632C6.97799 7.954 6.97699 8.392 6.97699 9.07V10.93C6.97699 11.608 6.97799 12.046 7.02199 12.368C7.06199 12.671 7.12799 12.766 7.18199 12.818C7.23399 12.872 7.32899 12.938 7.63199 12.978C7.95399 13.022 8.39199 13.023 9.06999 13.023H10.93C11.608 13.023 12.046 13.022 12.368 12.978C12.671 12.938 12.766 12.872 12.818 12.818C12.872 12.766 12.938 12.671 12.978 12.368C13.022 12.046 13.023 11.608 13.023 10.93V9.07C13.023 8.392 13.022 7.954 12.978 7.632C12.938 7.329 12.872 7.234 12.818 7.182C12.766 7.128 12.671 7.062 12.368 7.022C12.046 6.978 11.608 6.977 10.93 6.977H9.06999C8.39199 6.977 7.95399 6.978 7.63199 7.022ZM10.966 8.545C11.063 8.39421 11.0983 8.21185 11.0645 8.03574C11.0307 7.85963 10.9305 7.70329 10.7845 7.59912C10.6385 7.49495 10.4581 7.45096 10.2806 7.47626C10.103 7.50155 9.94204 7.59421 9.83099 7.735L8.50199 9.595C8.42764 9.69936 8.38346 9.82217 8.37427 9.94997C8.36509 10.0778 8.39126 10.2056 8.44992 10.3196C8.50859 10.4335 8.59747 10.529 8.70685 10.5958C8.81622 10.6626 8.94186 10.6979 9.06999 10.698H9.57499L9.03399 11.455C8.93477 11.6058 8.89781 11.7891 8.93087 11.9665C8.96392 12.144 9.06442 12.3017 9.21126 12.4066C9.35811 12.5116 9.53989 12.5555 9.71846 12.5293C9.89703 12.5031 10.0585 12.4087 10.169 12.266L11.498 10.406C11.5726 10.3016 11.617 10.1787 11.6264 10.0508C11.6357 9.92281 11.6096 9.79475 11.5509 9.68067C11.4922 9.56659 11.4032 9.47089 11.2937 9.40408C11.1841 9.33728 11.0583 9.30196 10.93 9.302H10.425L10.966 8.545Z" fill="#818194"/>
    <path fill-rule="evenodd" clip-rule="evenodd" d="M10.698 0.698C10.698 0.512879 10.6245 0.33534 10.4936 0.204439C10.3627 0.073539 10.1851 0 10 0C9.81488 0 9.63734 0.073539 9.50644 0.204439C9.37554 0.33534 9.302 0.512879 9.302 0.698V3.488C8.79267 3.488 8.32767 3.49367 7.907 3.505V0.698C7.90017 0.517582 7.82369 0.346829 7.69363 0.221602C7.56357 0.0963745 7.39005 0.0264149 7.2095 0.0264149C7.02895 0.0264149 6.85543 0.0963745 6.72537 0.221602C6.59531 0.346829 6.51883 0.517582 6.512 0.698V3.488C6.512 3.52533 6.51467 3.56133 6.52 3.596C5.584 3.711 4.935 3.949 4.442 4.442C3.949 4.935 3.711 5.584 3.596 6.52C3.56017 6.51538 3.52412 6.51271 3.488 6.512H0.698C0.517582 6.51883 0.346829 6.59531 0.221602 6.72537C0.0963745 6.85543 0.0264149 7.02895 0.0264149 7.2095C0.0264149 7.39005 0.0963745 7.56357 0.221602 7.69363C0.346829 7.82369 0.517582 7.90017 0.698 7.907H3.505C3.49433 8.327 3.489 8.792 3.489 9.302H0.698C0.512879 9.302 0.33534 9.37554 0.204439 9.50644C0.073539 9.63734 0 9.81488 0 10C0 10.1851 0.073539 10.3627 0.204439 10.4936C0.33534 10.6245 0.512879 10.698 0.698 10.698H3.488C3.488 11.2073 3.49367 11.6723 3.505 12.093H0.698C0.517582 12.0998 0.346829 12.1763 0.221602 12.3064C0.0963745 12.4364 0.0264149 12.61 0.0264149 12.7905C0.0264149 12.971 0.0963745 13.1446 0.221602 13.2746C0.346829 13.4047 0.517582 13.4812 0.698 13.488H3.488C3.52412 13.4873 3.56017 13.4846 3.596 13.48C3.711 14.416 3.949 15.065 4.442 15.558C4.935 16.051 5.584 16.289 6.52 16.404C6.51538 16.4398 6.51271 16.4759 6.512 16.512V19.302C6.51883 19.4824 6.59531 19.6532 6.72537 19.7784C6.85543 19.9036 7.02895 19.9736 7.2095 19.9736C7.39005 19.9736 7.56357 19.9036 7.69363 19.7784C7.82369 19.6532 7.90017 19.4824 7.907 19.302V16.495C8.327 16.5057 8.792 16.511 9.302 16.511V19.302C9.302 19.4871 9.37554 19.6647 9.50644 19.7956C9.63734 19.9265 9.81488 20 10 20C10.1851 20 10.3627 19.9265 10.4936 19.7956C10.6245 19.6647 10.698 19.4871 10.698 19.302V16.512C11.2073 16.512 11.6723 16.5063 12.093 16.495V19.302C12.0998 19.4824 12.1763 19.6532 12.3064 19.7784C12.4364 19.9036 12.61 19.9736 12.7905 19.9736C12.971 19.9736 13.1446 19.9036 13.2746 19.7784C13.4047 19.6532 13.4812 19.4824 13.488 19.302V16.512C13.4873 16.4759 13.4846 16.4398 13.48 16.404C14.416 16.289 15.065 16.051 15.558 15.558C16.051 15.065 16.289 14.416 16.404 13.48C16.4393 13.486 16.4753 13.4887 16.512 13.488H19.302C19.4824 13.4812 19.6532 13.4047 19.7784 13.2746C19.9036 13.1446 19.9736 12.971 19.9736 12.7905C19.9736 12.61 19.9036 12.4364 19.7784 12.3064C19.6532 12.1763 19.4824 12.0998 19.302 12.093H16.495C16.5057 11.673 16.511 11.208 16.511 10.698H19.302C19.4871 10.698 19.6647 10.6245 19.7956 10.4936C19.9265 10.3627 20 10.1851 20 10C20 9.81488 19.9265 9.63734 19.7956 9.50644C19.6647 9.37554 19.4871 9.302 19.302 9.302H16.512C16.512 8.79267 16.5063 8.32767 16.495 7.907H19.302C19.4824 7.90017 19.6532 7.82369 19.7784 7.69363C19.9036 7.56357 19.9736 7.39005 19.9736 7.2095C19.9736 7.02895 19.9036 6.85543 19.7784 6.72537C19.6532 6.59531 19.4824 6.51883 19.302 6.512H16.512C16.4759 6.51271 16.4398 6.51538 16.404 6.52C16.289 5.584 16.051 4.935 15.558 4.442C15.065 3.949 14.416 3.711 13.48 3.596C13.4846 3.56017 13.4873 3.52412 13.488 3.488V0.698C13.4812 0.517582 13.4047 0.346829 13.2746 0.221602C13.1446 0.0963745 12.971 0.0264149 12.7905 0.0264149C12.61 0.0264149 12.4364 0.0963745 12.3064 0.221602C12.1763 0.346829 12.0998 0.517582 12.093 0.698V3.505C11.6281 3.49387 11.163 3.48854 10.698 3.489V0.698ZM7.446 5.638C7.872 5.581 8.406 5.581 9.024 5.581H10.976C11.595 5.581 12.127 5.581 12.554 5.639C13.012 5.7 13.45 5.839 13.806 6.194C14.161 6.55 14.3 6.988 14.361 7.446C14.419 7.872 14.419 8.406 14.419 9.024V10.976C14.419 11.595 14.419 12.127 14.361 12.554C14.3 13.012 14.161 13.45 13.806 13.806C13.45 14.161 13.012 14.3 12.554 14.361C12.127 14.419 11.594 14.419 10.976 14.419H9.024C8.405 14.419 7.872 14.419 7.446 14.361C6.988 14.3 6.55 14.161 6.194 13.806C5.839 13.45 5.7 13.012 5.639 12.554C5.581 12.127 5.581 11.594 5.581 10.976V9.024C5.581 8.405 5.581 7.872 5.639 7.446C5.7 6.988 5.839 6.55 6.194 6.194C6.55 5.839 6.988 5.699 7.446 5.638Z" fill="#818194"/>
</svg>
