<svg width="16" height="16" viewBox="0 0 16 16" fill="none" xmlns="http://www.w3.org/2000/svg">
    <path d="M14.5 7.99997C14.5 9.72388 13.8152 11.3772 12.5962 12.5962C11.3772 13.8152 9.72391 14.5 8 14.5C6.27609 14.5 4.62279 13.8152 3.40381 12.5962C2.18482 11.3772 1.5 9.72388 1.5 7.99997C1.5 5.43747 2.98813 3.10247 5.29125 2.0456C5.35092 2.01818 5.4154 2.00279 5.48102 2.0003C5.54664 1.99781 5.61211 2.00826 5.67368 2.03107C5.73526 2.05388 5.79174 2.08859 5.8399 2.13323C5.88806 2.17787 5.92696 2.23155 5.95437 2.29122C5.98179 2.35089 5.99718 2.41538 5.99967 2.48099C6.00217 2.54661 5.99171 2.61208 5.9689 2.67366C5.94609 2.73523 5.91138 2.79171 5.86674 2.83987C5.8221 2.88804 5.76842 2.92693 5.70875 2.95435C3.75937 3.84935 2.5 5.82935 2.5 7.99997C2.5 9.45866 3.07946 10.8576 4.11091 11.8891C5.14236 12.9205 6.54131 13.5 8 13.5C9.45869 13.5 10.8576 12.9205 11.8891 11.8891C12.9205 10.8576 13.5 9.45866 13.5 7.99997C13.5 5.82935 12.2406 3.84935 10.2913 2.95435C10.1707 2.89898 10.0772 2.79802 10.0311 2.67366C9.98504 2.5493 9.99026 2.41173 10.0456 2.29122C10.101 2.17071 10.202 2.07714 10.3263 2.03107C10.4507 1.98501 10.5882 1.99023 10.7087 2.0456C13.0119 3.10247 14.5 5.43747 14.5 7.99997Z" fill="white"/>
</svg>
